{
  "accessors": [
    {
      "bufferView": 2,
      "componentType": 5126,
      "count": 315,
      "max": [
        17.739608764648438,
        17.369138717651367,
        31.895687103271484
      ],
      "min": [
        -16.076091766357422,
        4.6068339347839355,
        -0.39310500025749207
      ],
      "type": "VEC3"
    },
    {
      "bufferView": 2,
      "byteOffset": 3780,
      "componentType": 5126,
      "count": 315,
      "max": [
        0.99839162826538086,
        0.99931776523590088,
        0.99276912212371826
      ],
      "min": [
        -0.95735979080200195,
        -0.9999426007270813,
        -0.97705501317977905
      ],
      "type": "VEC3"
    },
    {
      "bufferView": 1,
      "componentType": 5126,
      "count": 315,
      "max": [
        0.97495299577713013,
        0.97783797979354858
      ],
      "min": [
        0.045889001339673996,
        0.016631999984383583
      ],
      "type": "VEC2"
    },
    {
      "bufferView": 0,
      "componentType": 5125,
      "count": 7992,
      "max": [
        314
      ],
      "min": [
        0
      ],
      "type": "SCALAR"
    },
    {
      "bufferView": 2,
      "byteOffset": 7560,
      "componentType": 5126,
      "count": 6591,
      "max": [
        22.927970886230469,
        27.91758918762207,
        40.09906005859375
      ],
      "min": [
        -20.856605529785156,
        1.5067830085754395,
        -1.0852689743041992
      ],
      "type": "VEC3"
    },
    {
      "bufferView": 2,
      "byteOffset": 86652,
      "componentType": 5126,
      "count": 6591,
      "max": [
        0.99952989816665649,
        0.99929410219192505,
        0.99925762414932251
      ],
      "min": [
        -0.99992752075195312,
        -0.99838489294052124,
        -0.95978635549545288
      ],
      "type": "VEC3"
    },
    {
      "bufferView": 1,
      "byteOffset": 2520,
      "componentType": 5126,
      "count": 6591,
      "max": [
        0.9837149977684021,
        0.9891430139541626
      ],
      "min": [
        0.014886000193655491,
        0.028991000726819038
      ],
      "type": "VEC2"
    },
    {
      "bufferView": 0,
      "byteOffset": 31968,
      "componentType": 5125,
      "count": 43080,
      "max": [
        6590
      ],
      "min": [
        0
      ],
      "type": "SCALAR"
    },
    {
      "bufferView": 2,
      "byteOffset": 165744,
      "componentType": 5126,
      "count": 5643,
      "max": [
        19.741729736328125,
        27.91758918762207,
        40.09906005859375
      ],
      "min": [
        -20.856605529785156,
        1.5067830085754395,
        -1.0852689743041992
      ],
      "type": "VEC3"
    },
    {
      "bufferView": 2,
      "byteOffset": 233460,
      "componentType": 5126,
      "count": 5643,
      "max": [
        0.99952989816665649,
        0.99929410219192505,
        0.99925762414932251
      ],
      "min": [
        -0.99992752075195312,
        -0.99838489294052124,
        -0.94417822360992432
      ],
      "type": "VEC3"
    },
    {
      "bufferView": 1,
      "byteOffset": 55248,
      "componentType": 5126,
      "count": 5643,
      "max": [
        0.9837149977684021,
        0.9891430139541626
      ],
      "min": [
        0.014886000193655491,
        0.028991000726819038
      ],
      "type": "VEC2"
    },
    {
      "bufferView": 0,
      "byteOffset": 204288,
      "componentType": 5125,
      "count": 44010,
      "max": [
        5642
      ],
      "min": [
        0
      ],
      "type": "SCALAR"
    },
    {
      "bufferView": 2,
      "byteOffset": 301176,
      "componentType": 5126,
      "count": 5737,
      "max": [
        22.500217437744141,
        25.839332580566406,
        40.09906005859375
      ],
      "min": [
        -20.856605529785156,
        1.5067830085754395,
        -1.0852689743041992
      ],
      "type": "VEC3"
    },
    {
      "bufferView": 2,
      "byteOffset": 370020,
      "componentType": 5126,
      "count": 5737,
      "max": [
        0.99979102611541748,
        0.99725610017776489,
        0.99925762414932251
      ],
      "min": [
        -0.99999600648880005,
        -0.99997752904891968,
        -0.88901525735855103
      ],
      "type": "VEC3"
    },
    {
      "bufferView": 1,
      "byteOffset": 100392,
      "componentType": 5126,
      "count": 5737,
      "max": [
        0.9837149977684021,
        0.9891430139541626
      ],
      "min": [
        0.014886000193655491,
        0.028991000726819038
      ],
      "type": "VEC2"
    },
    {
      "bufferView": 0,
      "byteOffset": 380328,
      "componentType": 5125,
      "count": 42144,
      "max": [
        5736
      ],
      "min": [
        0
      ],
      "type": "SCALAR"
    },
    {
      "bufferView": 2,
      "byteOffset": 438864,
      "componentType": 5126,
      "count": 6652,
      "max": [
        21.284141540527344,
        27.91758918762207,
        41.897575378417969
      ],
      "min": [
        -20.856605529785156,
        1.5067830085754395,
        -1.0852689743041992
      ],
      "type": "VEC3"
    },
    {
      "bufferView": 2,
      "byteOffset": 518688,
      "componentType": 5126,
      "count": 6652,
      "max": [
        0.99952989816665649,
        0.99929410219192505,
        0.99925762414932251
      ],
      "min": [
        -0.99992752075195312,
        -0.99838489294052124,
        -0.95978611707687378
      ],
      "type": "VEC3"
    },
    {
      "bufferView": 1,
      "byteOffset": 146288,
      "componentType": 5126,
      "count": 6652,
      "max": [
        0.9837149977684021,
        0.9891430139541626
      ],
      "min": [
        0.014886000193655491,
        0.028991000726819038
      ],
      "type": "VEC2"
    },
    {
      "bufferView": 0,
      "byteOffset": 548904,
      "componentType": 5125,
      "count": 43710,
      "max": [
        6651
      ],
      "min": [
        0
      ],
      "type": "SCALAR"
    },
    {
      "bufferView": 2,
      "byteOffset": 598512,
      "componentType": 5126,
      "count": 5288,
      "max": [
        19.741729736328125,
        27.91758918762207,
        40.09906005859375
      ],
      "min": [
        -20.856605529785156,
        1.5067830085754395,
        -1.0852689743041992
      ],
      "type": "VEC3"
    },
    {
      "bufferView": 2,
      "byteOffset": 661968,
      "componentType": 5126,
      "count": 5288,
      "max": [
        0.99952989816665649,
        0.99929410219192505,
        0.99925762414932251
      ],
      "min": [
        -0.99992752075195312,
        -0.99838489294052124,
        -0.95978611707687378
      ],
      "type": "VEC3"
    },
    {
      "bufferView": 1,
      "byteOffset": 199504,
      "componentType": 5126,
      "count": 5288,
      "max": [
        0.9837149977684021,
        0.9891430139541626
      ],
      "min": [
        0.014886000193655491,
        0.028991000726819038
      ],
      "type": "VEC2"
    },
    {
      "bufferView": 0,
      "byteOffset": 723744,
      "componentType": 5125,
      "count": 43494,
      "max": [
        5287
      ],
      "min": [
        0
      ],
      "type": "SCALAR"
    },
    {
      "bufferView": 2,
      "byteOffset": 725424,
      "componentType": 5126,
      "count": 5432,
      "max": [
        22.500217437744141,
        25.839332580566406,
        38.480815887451172
      ],
      "min": [
        -20.856605529785156,
        1.5067830085754395,
        -1.0852689743041992
      ],
      "type": "VEC3"
    },
    {
      "bufferView": 2,
      "byteOffset": 790608,
      "componentType": 5126,
      "count": 5432,
      "max": [
        0.99952989816665649,
        0.99725610017776489,
        0.99925762414932251
      ],
      "min": [
        -0.99953198432922363,
        -0.99838489294052124,
        -0.85121428966522217
      ],
      "type": "VEC3"
    },
    {
      "bufferView": 1,
      "byteOffset": 241808,
      "componentType": 5126,
      "count": 5432,
      "max": [
        0.9837149977684021,
        0.9891430139541626
      ],
      "min": [
        0.014886000193655491,
        0.028991000726819038
      ],
      "type": "VEC2"
    },
    {
      "bufferView": 0,
      "byteOffset": 897720,
      "componentType": 5125,
      "count": 42144,
      "max": [
        5431
      ],
      "min": [
        0
      ],
      "type": "SCALAR"
    },
    {
      "bufferView": 2,
      "byteOffset": 855792,
      "componentType": 5126,
      "count": 1323,
      "max": [
        17.5086669921875,
        27.91758918762207,
        40.09906005859375
      ],
      "min": [
        -18.183517456054688,
        2.4002740383148193,
        4.7101259231567383
      ],
      "type": "VEC3"
    },
    {
      "bufferView": 2,
      "byteOffset": 871668,
      "componentType": 5126,
      "count": 1323,
      "max": [
        0.9974367618560791,
        0.99929410219192505,
        0.99892610311508179
      ],
      "min": [
        -0.97048401832580566,
        -0.98759573698043823,
        -0.8908122181892395
      ],
      "type": "VEC3"
    },
    {
      "bufferView": 1,
      "byteOffset": 285264,
      "componentType": 5126,
      "count": 1323,
      "max": [
        0.9837149977684021,
        0.9891430139541626
      ],
      "min": [
        0.014886000193655491,
        0.028991000726819038
      ],
      "type": "VEC2"
    },
    {
      "bufferView": 0,
      "byteOffset": 1066296,
      "componentType": 5125,
      "count": 6450,
      "max": [
        1322
      ],
      "min": [
        0
      ],
      "type": "SCALAR"
    }
  ],
  "asset": {
    "extras": {
      "author": "jade_m (https://sketchfab.com/jade_m)",
      "license": "CC-BY-4.0 (http://creativecommons.org/licenses/by/4.0/)",
      "source": "https://sketchfab.com/3d-models/tree-model-91c38879e3e3446c920f721c739fece2",
      "title": "Tree Model"
    },
    "generator": "Sketchfab-8.47.0",
    "version": "2.0"
  },
  "bufferViews": [
    {
      "buffer": 0,
      "byteLength": 1092096,
      "byteOffset": 0,
      "name": "floatBufferViews",
      "target": 34963
    },
    {
      "buffer": 0,
      "byteLength": 295848,
      "byteOffset": 1092096,
      "byteStride": 8,
      "name": "floatBufferViews",
      "target": 34962
    },
    {
      "buffer": 0,
      "byteLength": 887544,
      "byteOffset": 1387944,
      "byteStride": 12,
      "name": "floatBufferViews",
      "target": 34962
    }
  ],
  "buffers": [
    {
      "byteLength": 2275488,
      "uri": "scene.bin"
    }
  ],
  "images": [
    {
      "uri": "textures/lambert3SG_baseColor.jpeg"
    },
    {
      "uri": "textures/lambert5SG_baseColor.png"
    }
  ],
  "materials": [
    {
      "doubleSided": true,
      "name": "lambert3SG",
      "pbrMetallicRoughness": {
        "baseColorFactor": [
          1,
          1,
          1,
          1
        ],
        "baseColorTexture": {
          "index": 0,
          "texCoord": 0
        },
        "metallicFactor": 0,
        "roughnessFactor": 0.59999999999999998
      }
    },
    {
      "alphaMode": "BLEND",
      "doubleSided": true,
      "name": "lambert5SG",
      "pbrMetallicRoughness": {
        "baseColorFactor": [
          1,
          1,
          1,
          1
        ],
        "baseColorTexture": {
          "index": 1,
          "texCoord": 0
        },
        "metallicFactor": 0,
        "roughnessFactor": 1
      }
    }
  ],
  "meshes": [
    {
      "primitives": [
        {
          "attributes": {
            "NORMAL": 1,
            "POSITION": 0,
            "TEXCOORD_0": 2
          },
          "indices": 3,
          "material": 0,
          "mode": 4
        }
      ]
    },
    {
      "primitives": [
        {
          "attributes": {
            "NORMAL": 5,
            "POSITION": 4,
            "TEXCOORD_0": 6
          },
          "indices": 7,
          "material": 1,
          "mode": 4
        }
      ]
    },
    {
      "primitives": [
        {
          "attributes": {
            "NORMAL": 9,
            "POSITION": 8,
            "TEXCOORD_0": 10
          },
          "indices": 11,
          "material": 1,
          "mode": 4
        }
      ]
    },
    {
      "primitives": [
        {
          "attributes": {
            "NORMAL": 13,
            "POSITION": 12,
            "TEXCOORD_0": 14
          },
          "indices": 15,
          "material": 1,
          "mode": 4
        }
      ]
    },
    {
      "primitives": [
        {
          "attributes": {
            "NORMAL": 17,
            "POSITION": 16,
            "TEXCOORD_0": 18
          },
          "indices": 19,
          "material": 1,
          "mode": 4
        }
      ]
    },
    {
      "primitives": [
        {
          "attributes": {
            "NORMAL": 21,
            "POSITION": 20,
            "TEXCOORD_0": 22
          },
          "indices": 23,
          "material": 1,
          "mode": 4
        }
      ]
    },
    {
      "primitives": [
        {
          "attributes": {
            "NORMAL": 25,
            "POSITION": 24,
            "TEXCOORD_0": 26
          },
          "indices": 27,
          "material": 1,
          "mode": 4
        }
      ]
    },
    {
      "primitives": [
        {
          "attributes": {
            "NORMAL": 29,
            "POSITION": 28,
            "TEXCOORD_0": 30
          },
          "indices": 31,
          "material": 1,
          "mode": 4
        }
      ]
    }
  ],
  "nodes": [
    {
      "children": [
        1
      ],
      "name": "RootNode (gltf orientation matrix)",
      "rotation": [
        -0.70710678118654746,
        -0,
        -0,
        0.70710678118654757
      ]
    },
    {
      "children": [
        2
      ],
      "matrix": [
        0.072076685726642609,
        0,
        0,
        0,
        0,
        0.072076685726642609,
        0,
        0,
        0,
        0,
        0.072076685726642609,
        0,
        0,
        0,
        0,
        1
      ],
      "name": "RootNode (model correction matrix)"
    },
    {
      "children": [
        3,
        4,
        5,
        6,
        7,
        8,
        9,
        10
      ],
      "name": "SMALLTREEMODEL.obj.cleaner.materialmerger.gles"
    },
    {
      "mesh": 0,
      "name": ""
    },
    {
      "mesh": 1,
      "name": ""
    },
    {
      "mesh": 2,
      "name": ""
    },
    {
      "mesh": 3,
      "name": ""
    },
    {
      "mesh": 4,
      "name": ""
    },
    {
      "mesh": 5,
      "name": ""
    },
    {
      "mesh": 6,
      "name": ""
    },
    {
      "mesh": 7,
      "name": ""
    }
  ],
  "samplers": [
    {
      "magFilter": 9729,
      "minFilter": 9987,
      "wrapS": 10497,
      "wrapT": 10497
    }
  ],
  "scene": 0,
  "scenes": [
    {
      "name": "OSG_Scene",
      "nodes": [
        0
      ]
    }
  ],
  "textures": [
    {
      "sampler": 0,
      "source": 0
    },
    {
      "sampler": 0,
      "source": 1
    }
  ]
}

