{
  "accessors": [
    {
      "bufferView": 2,
      "componentType": 5126,
      "count": 65532,
      "max": [
        7.6883587837219238,
        7.8779211044311523,
        3.4755680561065674
      ],
      "min": [
        -1.3790880441665649,
        -0.79679298400878906,
        -1.4912329912185669
      ],
      "type": "VEC3"
    },
    {
      "bufferView": 2,
      "byteOffset": 786384,
      "componentType": 5126,
      "count": 65532,
      "max": [
        0.99995714426040649,
        0.99889802932739258,
        0.99999988079071045
      ],
      "min": [
        -0.99997323751449585,
        -0.99996966123580933,
        -0.99857348203659058
      ],
      "type": "VEC3"
    },
    {
      "bufferView": 3,
      "componentType": 5126,
      "count": 65532,
      "max": [
        0.75294119119644165,
        0.75294119119644165,
        0.75294119119644165,
        1
      ],
      "min": [
        0.75294119119644165,
        0.75294119119644165,
        0.75294119119644165,
        1
      ],
      "type": "VEC4"
    },
    {
      "bufferView": 1,
      "componentType": 5126,
      "count": 65532,
      "max": [
        0.99628198146820068,
        0.99919599294662476
      ],
      "min": [
        0.00075200002174824476,
        0.29010498523712158
      ],
      "type": "VEC2"
    },
    {
      "bufferView": 0,
      "componentType": 5125,
      "count": 314862,
      "max": [
        65531
      ],
      "min": [
        0
      ],
      "type": "SCALAR"
    },
    {
      "bufferView": 2,
      "byteOffset": 1572768,
      "componentType": 5126,
      "count": 65532,
      "max": [
        8.233922004699707,
        9.4296140670776367,
        5.4854011535644531
      ],
      "min": [
        -0.93503600358963013,
        -0.97389501333236694,
        -1.3431600332260132
      ],
      "type": "VEC3"
    },
    {
      "bufferView": 2,
      "byteOffset": 2359152,
      "componentType": 5126,
      "count": 65532,
      "max": [
        0.9999578595161438,
        0.99979537725448608,
        0.99998611211776733
      ],
      "min": [
        -0.99999511241912842,
        -0.99996966123580933,
        -0.99997234344482422
      ],
      "type": "VEC3"
    },
    {
      "bufferView": 3,
      "byteOffset": 1048512,
      "componentType": 5126,
      "count": 65532,
      "max": [
        0.75294119119644165,
        0.75294119119644165,
        0.75294119119644165,
        1
      ],
      "min": [
        0.75294119119644165,
        0.75294119119644165,
        0.75294119119644165,
        1
      ],
      "type": "VEC4"
    },
    {
      "bufferView": 1,
      "byteOffset": 524256,
      "componentType": 5126,
      "count": 65532,
      "max": [
        0.99962997436523438,
        0.99950402975082397
      ],
      "min": [
        0.00078499998198822141,
        0.27325999736785889
      ],
      "type": "VEC2"
    },
    {
      "bufferView": 0,
      "byteOffset": 1259448,
      "componentType": 5125,
      "count": 305061,
      "max": [
        65531
      ],
      "min": [
        0
      ],
      "type": "SCALAR"
    },
    {
      "bufferView": 2,
      "byteOffset": 3145536,
      "componentType": 5126,
      "count": 65533,
      "max": [
        8.233922004699707,
        9.1454048156738281,
        5.3323459625244141
      ],
      "min": [
        -1.383296012878418,
        -0.97670400142669678,
        -1.490928053855896
      ],
      "type": "VEC3"
    },
    {
      "bufferView": 2,
      "byteOffset": 3931932,
      "componentType": 5126,
      "count": 65533,
      "max": [
        0.9997563362121582,
        0.99967366456985474,
        0.99999934434890747
      ],
      "min": [
        -0.99999511241912842,
        -0.99998563528060913,
        -0.99998676776885986
      ],
      "type": "VEC3"
    },
    {
      "bufferView": 3,
      "byteOffset": 2097024,
      "componentType": 5126,
      "count": 65533,
      "max": [
        0.75294119119644165,
        0.75294119119644165,
        0.75294119119644165,
        1
      ],
      "min": [
        0.75294119119644165,
        0.75294119119644165,
        0.75294119119644165,
        1
      ],
      "type": "VEC4"
    },
    {
      "bufferView": 1,
      "byteOffset": 1048512,
      "componentType": 5126,
      "count": 65533,
      "max": [
        0.99965602159500122,
        0.99967300891876221
      ],
      "min": [
        0.00040799999260343611,
        0.27430099248886108
      ],
      "type": "VEC2"
    },
    {
      "bufferView": 0,
      "byteOffset": 2479692,
      "componentType": 5125,
      "count": 237684,
      "max": [
        65532
      ],
      "min": [
        0
      ],
      "type": "SCALAR"
    },
    {
      "bufferView": 2,
      "byteOffset": 4718328,
      "componentType": 5126,
      "count": 13295,
      "max": [
        8.1851034164428711,
        8.9549617767333984,
        5.201347827911377
      ],
      "min": [
        -0.92422699928283691,
        -0.96036100387573242,
        -1.4715429544448853
      ],
      "type": "VEC3"
    },
    {
      "bufferView": 2,
      "byteOffset": 4877868,
      "componentType": 5126,
      "count": 13295,
      "max": [
        0.99568736553192139,
        0.99979537725448608,
        0.99999666213989258
      ],
      "min": [
        -0.99995750188827515,
        -0.99982774257659912,
        -0.99998676776885986
      ],
      "type": "VEC3"
    },
    {
      "bufferView": 3,
      "byteOffset": 3145552,
      "componentType": 5126,
      "count": 13295,
      "max": [
        0.75294119119644165,
        0.75294119119644165,
        0.75294119119644165,
        1
      ],
      "min": [
        0.75294119119644165,
        0.75294119119644165,
        0.75294119119644165,
        1
      ],
      "type": "VEC4"
    },
    {
      "bufferView": 1,
      "byteOffset": 1572776,
      "componentType": 5126,
      "count": 13295,
      "max": [
        0.99953800439834595,
        0.99987798929214478
      ],
      "min": [
        0.00086999998893588781,
        0.2741360068321228
      ],
      "type": "VEC2"
    },
    {
      "bufferView": 0,
      "byteOffset": 3430428,
      "componentType": 5125,
      "count": 20502,
      "max": [
        13294
      ],
      "min": [
        0
      ],
      "type": "SCALAR"
    }
  ],
  "asset": {
    "extras": {
      "author": "Artur Coelho (https://sketchfab.com/coelhoelectrico)",
      "license": "CC-BY-4.0 (http://creativecommons.org/licenses/by/4.0/)",
      "source": "https://sketchfab.com/3d-models/waterfall-3d6d003046ff41ee8bd7fff642a170bf",
      "title": "Waterfall"
    },
    "generator": "Sketchfab-7.57.0",
    "version": "2.0"
  },
  "bufferViews": [
    {
      "buffer": 0,
      "byteLength": 3512436,
      "byteOffset": 0,
      "name": "floatBufferViews",
      "target": 34963
    },
    {
      "buffer": 0,
      "byteLength": 1679136,
      "byteOffset": 3512436,
      "byteStride": 8,
      "name": "floatBufferViews",
      "target": 34962
    },
    {
      "buffer": 0,
      "byteLength": 5037408,
      "byteOffset": 5191572,
      "byteStride": 12,
      "name": "floatBufferViews",
      "target": 34962
    },
    {
      "buffer": 0,
      "byteLength": 3358272,
      "byteOffset": 10228980,
      "byteStride": 16,
      "name": "floatBufferViews",
      "target": 34962
    }
  ],
  "buffers": [
    {
      "byteLength": 13587252,
      "uri": "scene.bin"
    }
  ],
  "images": [
    {
      "uri": "textures/material_0_baseColor.jpeg"
    }
  ],
  "materials": [
    {
      "doubleSided": true,
      "emissiveFactor": [
        0,
        0,
        0
      ],
      "name": "material_0",
      "pbrMetallicRoughness": {
        "baseColorFactor": [
          1,
          1,
          1,
          1
        ],
        "baseColorTexture": {
          "index": 0,
          "texCoord": 0
        },
        "metallicFactor": 0,
        "roughnessFactor": 1
      }
    }
  ],
  "meshes": [
    {
      "primitives": [
        {
          "attributes": {
            "COLOR_0": 2,
            "NORMAL": 1,
            "POSITION": 0,
            "TEXCOORD_0": 3
          },
          "indices": 4,
          "material": 0,
          "mode": 4
        }
      ]
    },
    {
      "primitives": [
        {
          "attributes": {
            "COLOR_0": 7,
            "NORMAL": 6,
            "POSITION": 5,
            "TEXCOORD_0": 8
          },
          "indices": 9,
          "material": 0,
          "mode": 4
        }
      ]
    },
    {
      "primitives": [
        {
          "attributes": {
            "COLOR_0": 12,
            "NORMAL": 11,
            "POSITION": 10,
            "TEXCOORD_0": 13
          },
          "indices": 14,
          "material": 0,
          "mode": 4
        }
      ]
    },
    {
      "primitives": [
        {
          "attributes": {
            "COLOR_0": 17,
            "NORMAL": 16,
            "POSITION": 15,
            "TEXCOORD_0": 18
          },
          "indices": 19,
          "material": 0,
          "mode": 4
        }
      ]
    }
  ],
  "nodes": [
    {
      "children": [
        1
      ],
      "name": "RootNode (gltf orientation matrix)",
      "rotation": [
        -0.70710678118654746,
        -0,
        -0,
        0.70710678118654757
      ]
    },
    {
      "children": [
        2
      ],
      "name": "RootNode (model correction matrix)"
    },
    {
      "children": [
        3,
        4,
        5,
        6
      ],
      "name": "map_7906c23d-fe29-4580-a4b5-3d5840271bd7_densified_mesh_textured.obj.cleaner.materialmerger.gles"
    },
    {
      "mesh": 0,
      "name": ""
    },
    {
      "mesh": 1,
      "name": ""
    },
    {
      "mesh": 2,
      "name": ""
    },
    {
      "mesh": 3,
      "name": ""
    }
  ],
  "samplers": [
    {
      "magFilter": 9729,
      "minFilter": 9987,
      "wrapS": 10497,
      "wrapT": 10497
    }
  ],
  "scene": 0,
  "scenes": [
    {
      "name": "OSG_Scene",
      "nodes": [
        0
      ]
    }
  ],
  "textures": [
    {
      "sampler": 0,
      "source": 0
    }
  ]
}

